# xmcd
#
# Track frame offsets: 
#        150
#        14480
#        27277
#        36450
#        51672
#        64312
#        79140
#        97487
#        108757
#        124877
#        134735
#        146590
#        156790
#        170635
#        181445
#        191137
#        199945
#        210832
#        223730
#        237135
#        249862
#        263305
#        278105
#        299480
#        310470
#
# Disc length: 4536 seconds
#
# Revision: 18
# Processed by: cddbd v1.5.2PL0 Copyright (c) Steve Scherf et al.
# Submitted via: ExactAudioCopy v1.1
#
DISCID=8a11b619
DTITLE=Various Artist - Country gold, vol. 1
DYEAR=1997
DGENRE=Country
TTITLE0=Bellamy Brothers - If I said you have a beautiful body would y
TTITLE0=ou hold it against me?
TTITLE1=Lynn Anderson - (I never promised you a) Rose garden
TTITLE2=Frankie Laine - Rawhide
TTITLE3=Merle Haggard - Mule skinner blues
TTITLE4=Kenny Rogers - Reuben James
TTITLE5=Bellamy Brothers - Lovers live longer
TTITLE6=Phil Carmen - The sun goes down
TTITLE7=Wanda Jackson - In the middle of a heartache
TTITLE8=Lynn Anderson - The devil went down to Georgia
TTITLE9=Johnny Cash - Rock Island Line
TTITLE10=Justin Tubb - Lodi
TTITLE11=Jimmie Rodgers - Oh-o I'm falling in love again
TTITLE12=Willie Nelson - Home is where you're happy
TTITLE13=Conway Twitty - The hurt in my heart
TTITLE14=Faron Young - Country girl
TTITLE15=Mac Davis - Why can't I be like the others?
TTITLE16=Waylon Jennings - Dream baby
TTITLE17=Don Williams - Where do we go from here?
TTITLE18=Willie Nelson - No tomorrow in sight
TTITLE19=Johnny Cash - Folsom Prison blues
TTITLE20=Jimmy Dean - Big Bad John
TTITLE21=The Kingston Trio - Tom Dooley
TTITLE22=Phil Carmen - Borderline down [live]
TTITLE23=Loretta Lynn - Hey, Loretta [live]
TTITLE24=The Fifth Dimension - Ode to Billy Joe [live]
EXTD=YEAR: 1997
EXTT0=
EXTT1=
EXTT2=
EXTT3=
EXTT4=
EXTT5=
EXTT6=
EXTT7=
EXTT8=
EXTT9=
EXTT10=
EXTT11=
EXTT12=
EXTT13=
EXTT14=
EXTT15=
EXTT16=
EXTT17=
EXTT18=
EXTT19=
EXTT20=
EXTT21=
EXTT22=
EXTT23=
EXTT24=
PLAYORDER=
